<?xml version="1.0" encoding="utf-8"?>
<!-- Designed by Vexels.com - 2020 All Rights Reserved - https://vexels.com/terms-and-conditions/  -->
<svg version="1.1" id="Layer_1" xmlns="http://www.w3.org/2000/svg" xmlns:xlink="http://www.w3.org/1999/xlink" x="0px" y="0px"
	 viewBox="0 0 1200 1200" enable-background="new 0 0 1200 1200" xml:space="preserve">
<g>
	<path fill="#D3E4ED" d="M1060.411,486.533l85.42,39.724c5.263,2.448,5.623,9.794,0.625,12.744l-654.305,393.67
		c-15.78,9.072-35.203,9.026-50.943-0.117L74.064,718.069c-0.663-0.387-23.25-24.973-23.25-24.973c0,1.421,3.118-1.072,4.521-0.258
		l315.527,161.278c15.741,9.143,35.163,9.189,50.943,0.117l634.862-361.39c2.446-1.404,3.69-3.847,3.741-6.31H1060.411z"/>
	<path fill="#969593" d="M1081.273,459.879v37.58c0,0-0.088,0.302-0.302,0.757c-0.507,1.745-1.651,3.334-3.443,4.365L421.805,879.54
		c-15.78,9.072-35.203,9.026-50.943-0.117L52.104,694.25c-0.663-0.387-1.17-0.906-1.52-1.498c-0.347-0.592-0.541-1.259-0.575-1.928
		v-0.003c-0.009-0.145-0.009-0.29,0-0.439L50,654.201c0,1.421,0.7,2.842,2.104,3.656l318.757,185.173
		c15.741,9.143,35.163,9.189,50.943,0.117l655.724-376.959c2.446-1.404,3.69-3.847,3.742-6.31H1081.273z"/>
	<path fill="#31353E" d="M52.122,650.537L725.613,263.65c7.195-4.133,16.046-4.125,23.233,0.02l328.691,189.582
		c4.983,2.874,4.978,10.068-0.009,12.935L421.804,843.146c-15.78,9.072-35.203,9.028-50.942-0.115L52.104,657.858
		C49.291,656.224,49.301,652.158,52.122,650.537z"/>
	<g>
		<path fill="#E8E5DE" d="M1059.43,489.412c-3.138-1.079-7.267,2.659-9.226,8.349c-1.777,5.157-1.159,10.148,1.31,11.842
			l-4.385-2.466c-2.788-1.418-3.565-6.652-1.7-12.07c1.959-5.689,6.088-9.428,9.226-8.349c0.268,0.094,0.518,0.219,0.755,0.376
			L1059.43,489.412z"/>
		
			<ellipse transform="matrix(0.3256 -0.9455 0.9455 0.3256 239.6087 1335.3575)" fill="#31353E" cx="1055.882" cy="499.715" rx="10.895" ry="6.004"/>
	</g>
	<g>
		<path fill="#E8E5DE" d="M358.345,862.829c-0.325,0.268-0.683,0.473-1.079,0.609c-3.135,1.079-7.267-2.657-9.226-8.346
			c-1.959-5.689-1.005-11.176,2.13-12.258c0.393-0.137,0.803-0.196,1.224-0.182c2.913,0.074,6.29,3.556,8.001,8.531
			C361.107,856.154,360.595,860.972,358.345,862.829z"/>
	</g>
	<g>
		<path fill="#31353E" d="M358.345,862.829c-2.694-1.085-5.447-4.433-6.979-8.881c-1.532-4.448-1.424-8.781,0.029-11.296
			c2.913,0.074,6.29,3.556,8.001,8.531C361.107,856.154,360.595,860.972,358.345,862.829z"/>
	</g>
	<path fill="#019798" d="M166.425,601.227L725.01,280.569c6.509-3.739,14.515-3.732,21.017,0.018l297.336,171.497
		c4.508,2.6,4.503,9.108-0.008,11.701L500.841,775.463c-14.275,8.206-31.845,8.166-46.082-0.104l-288.35-167.509
		C163.864,606.371,163.873,602.693,166.425,601.227z"/>
	<ellipse fill="#969593" cx="263.891" cy="712.989" rx="51.72" ry="19.015"/>
	<g>
		<line fill="#E8E5DE" x1="1025.042" y1="515.139" x2="499.835" y2="818.141"/>
		<path fill="#E8E5DE" d="M499.836,818.569c-0.148,0-0.291-0.077-0.371-0.214c-0.118-0.204-0.048-0.465,0.157-0.583l525.207-303.003
			c0.204-0.118,0.465-0.048,0.583,0.157c0.118,0.204,0.048,0.466-0.157,0.583L500.049,818.511
			C499.981,818.55,499.908,818.569,499.836,818.569z"/>
	</g>
	<g>
		<path fill="#E8E5DE" d="M398.774,881.023c-0.059,0.003-0.129-0.233-0.28-0.724c-0.149-0.491-0.379-1.238-0.729-2.257
			c-0.347-1.019-0.816-2.311-1.389-3.896c-0.57-1.585-1.248-3.464-1.933-5.661c-0.685-2.197-1.16-4.087-1.366-5.693
			c-0.209-1.606-0.15-2.928,0.155-3.984c0.303-1.056,0.849-1.847,1.562-2.388c0.712-0.54,1.589-0.831,2.525-0.884
			c0.936-0.053,1.841,0.135,2.609,0.591c0.77,0.456,1.403,1.18,1.823,2.195c0.423,1.015,0.632,2.322,0.607,3.941
			c-0.022,1.619-0.28,3.551-0.71,5.811c-0.43,2.26-0.89,4.204-1.276,5.844c-0.389,1.64-0.708,2.977-0.937,4.029
			c-0.231,1.052-0.375,1.82-0.467,2.325C398.876,880.778,398.832,881.02,398.774,881.023z"/>
	</g>
	<g>
		<line fill="#E8E5DE" x1="337.761" y1="842.826" x2="54.283" y2="677.864"/>
		<path fill="#E8E5DE" d="M337.761,843.253c-0.073,0-0.147-0.019-0.214-0.058L54.068,678.233c-0.204-0.119-0.273-0.38-0.154-0.584
			c0.118-0.204,0.379-0.273,0.584-0.154l283.478,164.962c0.204,0.118,0.273,0.38,0.154,0.584
			C338.051,843.177,337.908,843.253,337.761,843.253z"/>
	</g>
	<g>
		<line fill="#E8E5DE" x1="488.413" y1="826.301" x2="423.155" y2="861.621"/>
		<path fill="#E8E5DE" d="M423.155,862.048c-0.152,0-0.299-0.081-0.376-0.224c-0.112-0.207-0.035-0.467,0.173-0.579l65.257-35.32
			c0.208-0.114,0.467-0.035,0.579,0.172c0.112,0.207,0.035,0.467-0.173,0.579l-65.258,35.32
			C423.294,862.032,423.224,862.048,423.155,862.048z"/>
	</g>
</g>
</svg>
