<?xml version="1.0" encoding="utf-8"?>
<!-- Designed by Vexels.com - 2016 All Rights Reserved - https://vexels.com/terms-and-conditions/  -->

<svg version="1.1" id="Layer_1" xmlns="http://www.w3.org/2000/svg" xmlns:xlink="http://www.w3.org/1999/xlink" x="0px" y="0px"
	 width="1200px" height="1200px" viewBox="0 0 1200 1200" enable-background="new 0 0 1200 1200" xml:space="preserve">
<g>
	<path fill-rule="evenodd" clip-rule="evenodd" fill="#818081" d="M60.258,772.068c5.666,0,10.27-8.418,10.27-18.735
		s-4.604-18.736-10.27-18.736c-5.647,0-10.258,8.418-10.258,18.736S54.611,772.068,60.258,772.068z"/>
	<path fill-rule="evenodd" clip-rule="evenodd" fill="#818081" d="M61.849,822.436c5.653,0,10.258-8.417,10.258-18.729
		c0-10.324-4.605-18.741-10.258-18.741c-5.659,0-10.276,8.417-10.276,18.741C51.573,814.019,56.19,822.436,61.849,822.436z"/>
	<path fill-rule="evenodd" clip-rule="evenodd" fill="#818081" d="M61.849,872.805c5.653,0,10.258-8.406,10.258-18.724
		c0-10.329-4.605-18.747-10.258-18.747c-5.659,0-10.276,8.418-10.276,18.747C51.573,864.399,56.19,872.805,61.849,872.805z"/>
	<path fill-rule="evenodd" clip-rule="evenodd" fill="#666264" d="M348.724,811.969h254.534h3.896h254.534
		c-5.713,54.949,12.177,120.068,107.891,157.991H607.155h-3.896H240.827C336.548,932.037,354.42,866.919,348.724,811.969z"/>
	<path fill-rule="evenodd" clip-rule="evenodd" fill="#3B3438" d="M94.655,208.825h1023.706c17.401,0,31.639,14.238,31.639,31.642
		v641.249c0,17.407-14.238,31.645-31.639,31.645H94.655c-17.401,0-31.639-14.238-31.639-31.645V240.467
		C63.017,223.063,77.254,208.825,94.655,208.825z"/>
	<path fill-rule="evenodd" clip-rule="evenodd" fill="#62C3D2" d="M97.145,235.835h1012.012c1.197,0,2.168,0.98,2.168,2.177v630.771
		c0,1.198-0.971,2.18-2.168,2.18H97.145c-1.191,0-2.174-0.983-2.174-2.18V238.012C94.971,236.816,95.954,235.835,97.145,235.835z"/>
	<path fill-rule="evenodd" clip-rule="evenodd" fill="#A0D6E1" d="M97.074,235.835h1012.155
		c17.949,0-153.351,176.536-482.284,393.927C367.728,801.074,93.524,876.129,94.971,868.783V238.012
		C94.971,236.816,95.919,235.835,97.074,235.835z"/>
	<path fill-rule="evenodd" clip-rule="evenodd" fill="#3B3438" d="M229.604,934.307h770.512c15.643,0,28.445,12.79,28.445,28.44
		v17.449c0,6.047-4.95,10.979-10.997,10.979H210.237c-4.992,0-9.079-4.069-9.079-9.061v-19.367
		C201.158,947.097,213.955,934.307,229.604,934.307z"/>
	<rect x="451.153" y="884.641" fill-rule="evenodd" clip-rule="evenodd" fill="#00B6E8" width="307.137" height="15.977"/>
</g>
</svg>
