<?xml version="1.0" encoding="utf-8"?>
<!-- Generator: Adobe Illustrator 23.0.3, SVG Export Plug-In . SVG Version: 6.00 Build 0)  -->
<svg version="1.1" id="Capa_1" xmlns="http://www.w3.org/2000/svg" xmlns:xlink="http://www.w3.org/1999/xlink" x="0px" y="0px"
	 viewBox="0 0 1200 1200" enable-background="new 0 0 1200 1200" xml:space="preserve">
<path fill="#333333" d="M814.501,569.027L814.501,569.027c-0.653,0-1.297,0.037-1.935,0.099
	c-8.034-62.133-41.403-116.305-89.466-151.778v-48.324c0-20.494-15.212-37.562-34.893-40.592c0.039-0.846,0.128-1.679,0.128-2.535
	V104.497c0-30.098-24.4-54.497-54.497-54.497h-87.987c-30.098,0-54.497,24.399-54.497,54.497v221.399
	c0,0.856,0.089,1.689,0.128,2.535c-19.682,3.03-34.893,20.097-34.893,40.592v48.324c-55.431,40.911-91.401,106.671-91.401,180.85
	s35.97,139.939,91.401,180.85v44.977c0,20.749,15.59,37.993,35.627,40.704c-0.53,3.051-0.861,6.171-0.861,9.374v221.399
	c0,30.098,24.399,54.497,54.497,54.497h87.987c30.098,0,54.497-24.399,54.497-54.497V874.104c0-3.203-0.332-6.323-0.862-9.374
	c20.037-2.711,35.627-19.955,35.627-40.704v-44.977c48.064-35.474,81.431-89.645,89.466-151.778
	c0.638,0.061,1.282,0.099,1.935,0.099l0,0c11.172,0,20.312-9.14,20.312-20.312v-17.717
	C834.813,578.168,825.673,569.027,814.501,569.027z M711.953,735.625l-44.612-34.721c-5.421-4.219-13.235-3.245-17.454,2.176
	s-3.245,13.235,2.176,17.454l39.562,30.791c-8.686,5.785-17.9,10.829-27.541,15.09l-51.068-39.746
	c-5.421-4.219-13.235-3.245-17.454,2.176c-4.219,5.421-3.245,13.235,2.176,17.454l38.399,29.885
	c-14.791,3.836-30.302,5.886-46.293,5.886c-101.551,0-183.874-82.323-183.874-183.874c0-93.317,69.532-170.343,159.602-182.229
	L446.535,516.316l98.818,24.979l31.331-126.451c4.351-0.308,8.729-0.52,13.159-0.52c43.822,0,84.042,15.355,115.633,40.944
	l-68.779,30.941l48.835,108.555l83.537-37.58c3.007,13.194,4.649,26.908,4.649,41.013
	C773.718,652.872,749.831,701.944,711.953,735.625z M682.664,672.241c-4.184,5.376-11.935,6.342-17.311,2.158l-75.826-59.015
	c-1.674-0.034-3.366-0.275-5.026-0.886c-8.007-2.951-12.106-11.834-9.155-19.841v0c0.527-1.43,1.297-2.683,2.163-3.846v-62.299
	c0-6.813,5.523-12.336,12.335-12.336c6.813,0,12.336,5.523,12.336,12.336v62.224c1.172,1.563,2.028,3.331,2.542,5.212l75.784,58.982
	C685.882,659.115,686.848,666.865,682.664,672.241z M493.632,698.281c-28.608,0-51.798-23.191-51.798-51.798
	c0-28.607,23.19-51.798,51.798-51.798s51.798,23.191,51.798,51.798C545.431,675.09,522.24,698.281,493.632,698.281z"/>
</svg>
